<?xml version="1.0" encoding="UTF-8" standalone="no"?>
<!-- Created with Inkscape (http://www.inkscape.org/) -->

<svg
   width="210mm"
   height="297mm"
   viewBox="0 0 210 297"
   version="1.1"
   id="svg980"
   sodipodi:docname="scribble.svg"
   inkscape:version="1.1.2 (b8e25be833, 2022-02-05)"
   xmlns:inkscape="http://www.inkscape.org/namespaces/inkscape"
   xmlns:sodipodi="http://sodipodi.sourceforge.net/DTD/sodipodi-0.dtd"
   xmlns="http://www.w3.org/2000/svg"
   xmlns:svg="http://www.w3.org/2000/svg">
  <sodipodi:namedview
     id="namedview982"
     pagecolor="#ffffff"
     bordercolor="#666666"
     borderopacity="1.0"
     inkscape:pageshadow="2"
     inkscape:pageopacity="0.0"
     inkscape:pagecheckerboard="0"
     inkscape:document-units="mm"
     showgrid="false"
     inkscape:zoom="0.50383782"
     inkscape:cx="395.96075"
     inkscape:cy="560.6963"
     inkscape:window-width="1920"
     inkscape:window-height="1112"
     inkscape:window-x="-8"
     inkscape:window-y="-8"
     inkscape:window-maximized="1"
     inkscape:current-layer="layer1" />
  <defs
     id="defs977" />
  <g
     inkscape:label="Layer 1"
     inkscape:groupmode="layer"
     id="layer1">
    <path
       style="fill:none;stroke:#000000;stroke-width:0.264583px;stroke-linecap:butt;stroke-linejoin:miter;stroke-opacity:1"
       d="m -57.002307,-0.66782443 c -1.41189,-2.74649697 -1.724736,-5.59115697 -1.724736,-8.62369497 0,-4.9449376 0.08009,-9.7582346 2.75958,-14.1428566 1.855073,-3.035572 3.98513,-4.713695 6.898955,-6.554007 5.050401,-3.189724 7.277766,-5.125717 13.108014,-1.724737 0.936979,0.546571 1.844426,1.142365 2.759583,1.724737 0.34976,0.222576 0.849439,0.31909 1.034843,0.689896 2.338679,4.67736 -0.864753,14.788774 -1.724739,19.6620206 -0.119893,0.679399 0.09118,1.385842 0,2.069687 -0.865677,6.492578 -0.843524,-0.118782 -0.344948,5.864111 0.0382,0.458343 -0.181176,0.95704797 0,1.37979097 0.131157,0.306031 3.030858,2.72557903 3.104528,2.75958103 0.962517,0.444238 2.051706,0.566033 3.104531,0.689895 2.839183,0.334024 5.677503,0.121323 7.933798,-1.724736 2.357028,-1.92847903 5.400564,-4.705244 6.554007,-7.588851 0.838719,-2.096799 -0.711075,-6.3361346 -1.034843,-8.2787456 -0.1524,-0.914405 -0.09028,-1.868231 -0.344948,-2.759583 -0.143727,-0.503047 -1.437283,-2.730836 -1.72474,-3.449476 -1.413891,-3.53473 -3.485946,-6.118534 -5.519163,-9.31359 -0.96648,-1.518753 -1.797007,-3.176796 -3.104528,-4.48432 -1.620113,-1.620109 -1.120685,-0.591113 -3.104531,-1.724739 -0.282369,-0.161353 -0.411022,-0.52257 -0.689896,-0.689896 -2.712966,-1.627777 -7.278356,-2.155822 -8.623694,-5.519163 -0.135038,-0.3376 -0.344945,-0.671235 -0.344945,-1.034844 0,-0.426889 3.570137,-4.60498 4.139372,-5.174215 0.565594,-0.565594 2.363914,-1.477867 3.104528,-1.724737 0.327247,-0.109082 0.711859,0.121119 1.034844,0 0.627769,-0.235415 1.125064,-0.735007 1.724739,-1.034843 2.453711,-1.226857 9.048639,-1.762591 11.728222,-1.379792 5.304547,0.757793 13.8342107,6.336207 12.7630657,12.763066 -0.483867,2.903207 -2.277409,5.38571 -2.75958,8.278746 -0.212918,1.277507 0,2.8545 0,4.139372 0,0.804879 -0.399333,1.715805 0,2.414635 0.581922,1.018366 3.713797,2.891743 4.829267,3.449476 1.58487803,0.792441 7.504887,0.5699 8.968647,-0.344947 1.04573,-0.653585 1.64411,-1.86064 2.41463,-2.759581 0.3174703,-0.37039 0.9064803,-0.564203 1.0348403,-1.034843 0.24203,-0.88745 0,-1.839722 0,-2.759583 0,-4.353933 -0.91245,-7.907142 -2.0696903,-12.073171 -0.25377,-0.913579 -0.28224,-1.903515 -0.68989,-2.759583 -0.75459,-1.584639 -1.97466,-2.91448 -2.75958,-4.484319 -0.2622,-0.524402 -0.15955,-1.168527 -0.34495,-1.72474 0.41582,-1.248669 -1.11759,-1.283083 -1.37979,-2.069684 -0.11735,-0.352057 -0.49251,-3.080568 -0.34495,-3.449479 0.0955,-0.238718 0.48913,-0.184332 0.6899,-0.344948 3.86138,-3.089103 6.5464603,-4.139372 11.7282203,-4.139372 2.36267,0 5.23265,0.728851 7.2439,2.069688 3.71146,2.474306 6.62722,7.745814 7.58885,12.07317 0.30345,1.365512 0.37989,2.775333 0.6899,4.139372 0.53209,2.341202 1.56662,4.551344 2.06969,6.898954 0.3367,1.571284 0,3.564269 0,5.174216 0,4.407485 0.22567,7.75285 -2.41464,11.383277 -1.941,2.668871 -4.49336,4.678399 -6.89895,6.898955 -0.47795,0.441179 -0.82822,1.0350576 -1.3798,1.3797886 -3.15789,1.973685 -8.37547,-0.4020476 -11.72822,1.034843 -5.2790903,2.262468 -8.7611303,11.179847 -7.9338003,16.557492 0.47064,3.0591004 2.73409,5.8386204 4.82927,7.9338004 0.69567,0.69567 2.08942,2.25202 3.1045303,2.75958 3.80719,1.90359 9.97146,3.05639 14.14286,2.41463 0.71876,-0.11058 1.35979,-0.53214 2.06969,-0.68989 2.19588,-0.48798 4.76099,-0.46352 6.89895,-1.37979 1.74931,-0.74971 2.589,-2.07095 4.13937,-3.10453 2.48824,-1.65883 6.04435,-1.96506 7.9338,-4.48432 0.96008,-1.28011 1.10079,-2.9282604 2.06969,-4.1393754 0.16061,-0.200769 0.5944,-0.106228 0.68989,-0.344948 1.29529,-3.238219 -3.04536,-7.00612203 -5.51916,-7.933798 -1.2764,-0.47865 -2.45434,-0.344948 -3.79443,-0.344948 -1.35405,0 -4.40291,-0.08141 -5.51916,1.03484297 -0.25711,0.257109 -0.14326,0.732304 -0.34495,1.034844 -0.0638,0.09567 -0.26364,-0.08131 -0.34494,0 -1.05879,1.05878303 0.20153,0.286816 -0.34495,1.37979203 -0.14545,0.290882 -0.56912,0.387934 -0.6899,0.689893 -0.54879,1.371991 0.24409,3.709688 0,5.174217 -0.3754,2.2524104 -2.24204,4.0529604 -3.44948,5.8641104 -0.28523,0.42786 -0.36866,0.97826 -0.68989,1.37979 -0.59525,0.74406 -2.91499,2.06969 -3.79443,2.06969 -4.73053,0 -4.48432,-3.58239 -4.48432,-6.89896 0,-0.8048804 -0.22111,-1.6407204 0,-2.4146304 0.14127,-0.494434 0.56518,-0.880927 0.6899,-1.379791 0.16732,-0.669298 -0.21817,-1.415195 0,-2.069687 1.15418,-3.462539 2.95628,-7.0768 5.86411,-9.313587 3.40522,-2.619404 6.85743,-5.014521 11.03833,-6.2090586 0.78176,-0.223364 1.62835,-0.138033 2.41463,-0.344948 1.40654,-0.370144 2.72111,-1.05746 4.13937,-1.379792 1.22625,-0.278693 5.75832,-0.916326 7.24391,-0.344947 1.01244,0.3894 1.77468,1.270166 2.75958,1.724739 0.53233,0.245692 1.18354,0.119446 1.72474,0.344948 0.79926,0.333025 3.48138,1.9221446 4.13937,2.7595796 2.33149,2.967347 4.77567,7.66579097 5.51916,11.383274 0.66856,3.342775 1.3292,15.3800804 0.34495,19.3170704 -0.84623,3.38491 -2.37502,7.57998 -4.48432,10.34844 -0.83911,1.10133 -2.06969,1.83972 -3.10453,2.75958 -4.67572,4.15619 -9.78814,8.08365 -15.8676,10.00348 -4.60517,1.45427 -4.00249,0.80508 -8.96863,1.72474 -4.08304,0.75612 -7.95956,2.14254 -12.07318,2.75958 -7.33366,1.10005 -15.9452503,0.53278 -23.1114943,-1.03484 -3.782156,-0.82735 -13.4111077,-5.27147 -16.5574897,-7.9338 -0.685554,-0.58008 -1.089729,-1.43467 -1.72474,-2.06968 -0.29315,-0.29315 -0.741693,-0.39675 -1.034843,-0.6899 -1.869012,-1.86901 -3.016965,-7.06345 -3.449479,-9.65854 -0.684284,-4.1057 2.05718,-8.22976 -0.344945,-12.07317 -0.390213,-0.62434 -0.681326,-1.49191 -1.379792,-1.72473 -1.644496,-0.54817 -6.453976,2.65611 -6.898954,4.13937 -0.266378,0.88792 -0.109027,1.86308 -0.344948,2.75958 -0.342506,1.30152 -0.974519,2.51106 -1.379792,3.79442 -2.238102,7.08733 -3.356094,10.94495 -8.968642,16.55749 -0.864282,0.86429 -1.711483,1.78578 -2.75958,2.41464 -1.728941,1.03736 -4.45116,0.68989 -6.209059,0.68989 -1.744514,0 -4.663728,0.19514 -6.554007,-0.34494 -3.517823,-1.00509 -6.465083,-5.11901 -7.243903,-8.6237 -1.041318,-4.68593 1.981719,-8.38524 5.519164,-11.03832 0.49536,-0.37152 1.170908,-0.41298 1.724739,-0.6899 2.177262,-1.08863 2.611694,-1.88482 4.139372,-3.79442 0.203163,-0.25396 0.544454,-0.39901 0.689896,-0.6899 0.640506,-1.28101 1.465876,-8.85406 1.034843,-10.00348 -0.622829,-1.6608804 -5.733206,-9.85490043 -4.48432,-11.7282274 0.270598,-0.4059 0.689896,-0.689896 1.034841,-1.034844"
       id="path1099" />
  </g>
</svg>
